<svg width="162" height="165" viewBox="0 0 162 165" fill="none" xmlns="http://www.w3.org/2000/svg">
<rect x="0.384003" width="161" height="165" fill="#1D1B1B"/>
<path d="M90.4428 55.175C92.3928 55.175 94.0178 55.11 95.3178 54.98V56.28C93.1511 56.8 91.4395 58.685 90.1828 61.935L74.9078 101.325H74.3878H73.8678L58.0078 60.44C56.9678 57.7533 55.4728 56.3667 53.5228 56.28V54.98C55.2561 55.11 57.5745 55.175 60.4778 55.175C64.2045 55.175 66.9778 55.11 68.7978 54.98V56.28C67.1511 56.3667 65.9595 56.5833 65.2228 56.93C64.5295 57.2333 64.1828 57.8183 64.1828 58.685C64.1828 59.4217 64.4428 60.44 64.9628 61.74L76.7278 93.005L87.3228 65.51C88.1895 63.17 88.6228 61.3933 88.6228 60.18C88.6228 58.8367 88.1461 57.8617 87.1928 57.255C86.2828 56.6483 84.8745 56.3233 82.9678 56.28V54.98C85.4378 55.11 87.9295 55.175 90.4428 55.175Z" fill="white"/>
<path d="M82.0589 55H96.0589L77.884 94L76.884 97V91.5L82.0589 55Z" fill="#1D1B1B"/>
<path d="M117.71 97.75C116.713 99.2233 115.716 100.285 114.72 100.935C113.723 101.585 112.401 101.91 110.755 101.91C108.978 101.91 107.505 101.39 106.335 100.35C105.208 99.31 104.363 97.49 103.8 94.89L102.37 88.39C101.85 86.1367 101.351 84.4033 100.875 83.19C100.441 81.9767 99.7698 81.0017 98.8598 80.265C97.9498 79.5283 96.6715 79.16 95.0248 79.16H88.8498V94.11C88.8498 95.7567 88.9798 96.9483 89.2398 97.685C89.4998 98.4217 89.9765 98.92 90.6698 99.18C91.4065 99.44 92.5548 99.6133 94.1148 99.7V101C92.1215 100.87 89.3698 100.805 85.8598 100.805C82.1331 100.805 79.3598 100.87 77.5398 101V99.7C79.0998 99.6133 80.2265 99.44 80.9198 99.18C81.6565 98.92 82.1548 98.4217 82.4148 97.685C82.6748 96.9483 82.8048 95.7567 82.8048 94.11V61.87C82.8048 60.2233 82.6748 59.0317 82.4148 58.295C82.1548 57.5583 81.6565 57.06 80.9198 56.8C80.2265 56.54 79.0998 56.3667 77.5398 56.28V54.98C79.3598 55.11 82.0031 55.175 85.4698 55.175L92.4898 55.11C93.3131 55.0667 94.2448 55.045 95.2848 55.045C100.311 55.045 104.168 56.1067 106.855 58.23C109.585 60.31 110.95 63.0183 110.95 66.355C110.95 68.045 110.538 69.7567 109.715 71.49C108.935 73.18 107.591 74.7183 105.685 76.105C103.821 77.4483 101.373 78.3583 98.3398 78.835L99.1198 78.965C101.98 79.4417 104.06 80.3083 105.36 81.565C106.66 82.8217 107.613 84.815 108.22 87.545L109.845 94.175C110.278 96.1683 110.733 97.555 111.21 98.335C111.686 99.115 112.336 99.505 113.16 99.505C113.896 99.505 114.503 99.31 114.98 98.92C115.5 98.53 116.085 97.9017 116.735 97.035L117.71 97.75ZM93.6598 56.28C92.3165 56.28 91.2981 56.4317 90.6048 56.735C89.9548 57.0383 89.4998 57.58 89.2398 58.36C88.9798 59.14 88.8498 60.31 88.8498 61.87V77.86H93.2048C97.4948 77.86 100.441 76.9067 102.045 75C103.648 73.0933 104.45 70.45 104.45 67.07C104.45 63.5167 103.605 60.83 101.915 59.01C100.225 57.19 97.4731 56.28 93.6598 56.28Z" fill="white"/>
<path d="M77.384 55H87.384L85.384 62L82.384 74L77.384 56V55Z" fill="#1D1B1B"/>
<line x1="67.6646" y1="132.077" x2="93.1341" y2="31.6767" stroke="white"/>
</svg>
